<svg xmlns="http://www.w3.org/2000/svg" width="493.037" height="276.833" viewBox="560.033 -120.447 493.037 276.833" enable-background="new 560.033 -120.447 493.037 276.833"><path fill="#56B4E8" d="M960.564-60.245h11.572v111.38h-11.572zM972.533-56.174h-12.145l-12.29-23.662h37.368z"/><path fill="#2BA57C" d="M952.296 78.744h32.488v33.832h-32.488z"/><ellipse fill="#40C199" cx="965.562" cy="115.146" rx="34.234" ry="4.894"/><path fill="#56B4E8" d="M1000.04 114.598l-14.765-62.752h-39.13l-14.767 62.752h.29c-.187.21-.29.414-.29.63 0 2.394 12.027 4.386 27.93 4.816V97.212h12.8v22.832c15.897-.435 27.93-2.426 27.93-4.817 0-.215-.104-.42-.29-.63h.293z"/><ellipse fill="#3498DB" cx="965.712" cy="51.963" rx="19.563" ry="2.797"/><path fill="#3498DB" d="M966.757-84.146c11.725 0 18.676 3.004 18.676 4.238 0 1.236-4.95 9.24-18.676 9.24-14.025 0-18.68-8.004-18.68-9.24.003-1.234 7.153-4.238 18.68-4.238z"/><path fill="#C4C4C4" d="M843.757 129.602l176.96 12.438-13.194-12.438zM681.824 131.63l72.857 13.92 132.49 3.553-41.583-17.472z"/><path fill="#40C199" d="M954.83 119.258v-135.29c0-25.824-20.936-46.762-46.762-46.762s-46.762 20.938-46.762 46.762v135.29h93.524z"/><path fill="#0C81C1" d="M647.214 121.987h58.918v-152.7c0-26.035-21.104-47.14-47.14-47.14h-11.778"/><path fill="#FF6F6F" d="M1009.386 81.817l-19.832-13.823 19.832-5.23 18.88 6.662zM1008.646 137.45l-19.334-8.592V67.994l19.62 5.727z"/><path fill="#E56161" d="M1028.265 130.29l-19.62 7.16V75.157l19.62-5.73z"/><path fill="#FF6F6F" d="M973.886 114.348l-12.752-8.89 12.752-3.362 12.14 4.285zM973.41 150.118l-12.43-5.524v-39.136l12.613 3.685z"/><path fill="#E56161" d="M986.025 145.515l-12.615 4.603v-40.055l12.615-3.682z"/><path fill="#3498DB" d="M646.707 126.046h58.92V-26.652c0-26.035-21.104-47.14-47.14-47.14h-11.78"/><circle fill="#2380B5" cx="671.095" cy="-50.22" r="5.708"/><circle fill="#fff" cx="671.095" cy="-52.501" r="5.708"/><circle fill="#2380B5" cx="704.224" cy="7.018" r="7.614"/><circle fill="#fff" cx="704.224" cy="3.972" r="7.613"/><path fill="#5BDDB9" d="M954.83 123.602v-135.29c0-25.823-20.936-46.76-46.762-46.76s-46.762 20.937-46.762 46.76v135.29h93.524z"/><path fill="#FECB37" d="M683.414 65.135h275.934v65.48H683.414z"/><path fill="#CE6767" d="M706.115-2.292H919.51v68.526H706.116zM715.378-.515h49.182V33.68h.018c0 .104-.01.207-.018.312v.135h-.006c-.227 3.113-2.787 5.576-5.94 5.644v.005H715.377V-.515z"/><path fill="#8C8B8B" d="M683.414 62.934H958.73v3.808H683.414z"/><path fill="#CE6767" d="M722.82 34.018c0 3.002-2.434 5.438-5.438 5.438h-47.117c-3.002 0-5.438-2.437-5.438-5.438V2.758c0-3.002 2.434-5.436 5.438-5.436h47.117c3.004 0 5.438 2.434 5.438 5.436v31.26z"/><path fill="#2380B5" d="M686.2-28.78h3.198v.722H686.2z"/><path fill="#F4F496" d="M686.2-33.706h3.198v4.902H686.2z"/><path fill="#2380B5" d="M691.277-28.78h3.195v.722h-3.195z"/><path fill="#F4F496" d="M691.277-33.706h3.195v4.902h-3.195z"/><path fill="#2380B5" d="M656.556-17.726h3.195v.723h-3.194z"/><path fill="#F4F496" d="M656.556-22.65h3.195v4.9h-3.194z"/><path fill="#2380B5" d="M661.632-17.726h3.195v.723h-3.195z"/><path fill="#F4F496" d="M661.632-22.65h3.195v4.9h-3.195z"/><path fill="#2380B5" d="M686.416-8.156h3.195v.725h-3.194z"/><path fill="#F4F496" d="M686.416-13.083h3.195v4.904h-3.194z"/><path fill="#2380B5" d="M691.49-8.156h3.195v.725h-3.195z"/><path fill="#F4F496" d="M691.49-13.083h3.195v4.904h-3.195z"/><path fill="#2380B5" d="M688.162 52.383h3.197v.723h-3.198z"/><path fill="#F4F496" d="M688.162 47.457h3.197v4.9h-3.198z"/><path fill="#2380B5" d="M693.238 52.383h3.193v.723h-3.192z"/><path fill="#F4F496" d="M693.238 47.457h3.193v4.9h-3.192z"/><path fill="#2380B5" d="M654.822 48.49h3.195v.723h-3.195z"/><path fill="#F4F496" d="M654.822 43.565h3.195v4.9h-3.195z"/><path fill="#2380B5" d="M659.896 48.49h3.195v.723h-3.194z"/><path fill="#F4F496" d="M659.896 43.565h3.195v4.9h-3.194z"/><path fill="#8C8B8B" d="M669.708-2.965h250.37v7.187H669.71zM664.75 4.208c0-2.04.165-3.326 1.08-4.697.948-1.427 2.774-2.472 4.187-2.472v7.17"/><g><circle fill="#ED8164" cx="635.896" cy="-39.199" r="4"><animate fill="remove" calcMode="linear" restart="always" additive="replace" dur="1s" accumulate="none" attributeName="r" values="4;4;5;5" repeatCount="indefinite"/></circle><animateMotion fill="remove" calcMode="paced" restart="always" additive="replace" dur="1s" accumulate="none" values="0,30;0,-20;0,-20" repeatCount="indefinite"/><animate fill="remove" calcMode="linear" restart="always" additive="replace" dur="1s" accumulate="none" attributeName="opacity" values="1;1;0" repeatCount="indefinite"/></g><g><circle fill="#FECB37" cx="604.646" cy="3.801" r="4"><animate fill="remove" calcMode="linear" restart="always" additive="replace" dur="2s" accumulate="none" attributeName="r" values="4;4;5;5" repeatCount="indefinite"/></circle><animateMotion fill="remove" calcMode="paced" restart="always" additive="replace" dur="2s" accumulate="none" values="0,35;0,-20;0,-20" repeatCount="indefinite"/><animate fill="remove" calcMode="linear" restart="always" additive="replace" dur="2s" accumulate="none" attributeName="opacity" values="1;1;0" repeatCount="indefinite"/></g><g><circle fill="#FECB37" cx="604.564" cy="-47.531" r="4"><animate fill="remove" calcMode="linear" restart="always" additive="replace" dur="1.3s" accumulate="none" attributeName="r" values="4;4;5;5" repeatCount="indefinite"/></circle><animateMotion fill="remove" calcMode="paced" restart="always" additive="replace" dur="1.3s" accumulate="none" values="0,80;0,-20;0,-20" repeatCount="indefinite"/><animate fill="remove" calcMode="linear" restart="always" additive="replace" dur="1.3s" accumulate="none" attributeName="opacity" values="1;1;0" repeatCount="indefinite"/></g><circle fill="#2380B5" cx="657.388" cy="-57.438" r="4.76"/><circle fill="#fff" cx="657.388" cy="-59.342" r="4.759"/><circle fill="#2BA57C" cx="888.046" cy="-23.36" r="7.613"/><circle fill="#fff" cx="888.046" cy="-26.405" r="7.613"/><circle fill="#2BA57C" cx="916.562" cy="-18.865" r="6.188"/><circle fill="#fff" cx="916.562" cy="-21.34" r="6.186"/><circle fill="#2BA57C" cx="916.289" cy="-42.256" r="4.23"/><circle fill="#fff" cx="916.289" cy="-43.948" r="4.229"/><circle fill="#2BA57C" cx="937.111" cy="34.145" r="7.088"/><circle fill="#fff" cx="937.111" cy="31.311" r="7.088"/><path fill="#FECB37" d="M815.523-48.197h2.367v45.01h-2.367z"/><g><g fill="#3498DB"><path d="M816.2-60.717h1.02v25.72h-1.02zM803.847-48.365h25.72v1.016h-25.72z"/></g><g fill="#3498DB"><path d="M808.04-38.442l-.717-.716 18.174-18.2.717.717zM825.424-38.435L807.24-56.62l.716-.718 18.185 18.186z"/></g><path fill="#F8876E" d="M816.708-34.152c-7.56 0-13.705-6.148-13.705-13.705 0-7.56 6.146-13.707 13.705-13.707s13.705 6.148 13.705 13.707c0 7.556-6.15 13.705-13.705 13.705zm0-26.395c-6.996 0-12.69 5.69-12.69 12.69 0 6.995 5.694 12.688 12.69 12.688s12.688-5.692 12.688-12.688c0-6.998-5.69-12.69-12.688-12.69zM816.708-36.35c-6.346 0-11.508-5.163-11.508-11.51 0-6.345 5.162-11.505 11.508-11.505s11.508 5.16 11.508 11.506c-.004 6.347-5.166 11.51-11.508 11.51zm0-22c-5.783 0-10.488 4.708-10.488 10.49 0 5.784 4.705 10.49 10.488 10.49s10.49-4.706 10.49-10.49c0-5.782-4.706-10.49-10.49-10.49z"/><animateTransform attributeName="transform" attributeType="XML" type="rotate" from="0 816.708 -48.415" to="360 816.708 -48.415" dur="2s" repeatCount="indefinite"/></g><path fill="#FECB37" d="M948.214-16.133h3.646v69.29h-3.646z"/><g><g fill="#3498DB"><path d="M949.53-32.365h1.02V7.233h-1.02zM930.24-13.074h39.598v1.018H930.24z"/></g><g fill="#3498DB"><path d="M936.36 1.773l-.72-.718 27.988-28.003.72.718zM963.695 1.763L935.7-26.23l.718-.72 27.995 27.996z"/></g><path fill="#F8876E" d="M950.037 8.26c-11.48 0-20.82-9.343-20.82-20.825 0-11.484 9.342-20.826 20.82-20.826 11.48 0 20.828 9.34 20.828 20.825 0 11.482-9.342 20.825-20.828 20.825zm0-40.637c-10.922 0-19.813 8.887-19.813 19.813 0 10.924 8.89 19.81 19.813 19.81 10.928 0 19.813-8.886 19.813-19.81 0-10.926-8.888-19.813-19.813-19.813zM950.037 4.875c-9.613 0-17.438-7.824-17.438-17.44 0-9.616 7.82-17.44 17.437-17.44s17.438 7.823 17.438 17.44c.003 9.616-7.82 17.44-17.438 17.44zm0-33.865c-9.055 0-16.424 7.367-16.424 16.422 0 9.06 7.37 16.428 16.424 16.428 9.06 0 16.428-7.37 16.428-16.428-.003-9.054-7.372-16.422-16.428-16.422z"/><animateTransform attributeName="transform" attributeType="XML" type="rotate" from="0 949.529 -13.074" to="360 949.529 -13.074" dur="4s" repeatCount="indefinite"/></g><path fill="#40C199" d="M1040.357 123.555c0 .422-2.373.754-5.307.754-2.932 0-5.31-.333-5.31-.755 0-.416 2.378-.76 5.31-.76 2.934 0 5.307.344 5.307.76z"/><path fill="#5BDDB9" d="M1040.394 123.47l-2.285-9.727h-6.065l-2.287 9.728h.043c-.024.03-.042.062-.042.097 0 .37 1.86.684 4.322.75h1.982c2.465-.066 4.326-.38 4.326-.75 0-.035-.02-.063-.045-.096h.05z"/><path fill="#40C199" d="M1038.107 113.76c0 .24-1.355.438-3.03.438-1.675 0-3.028-.19-3.028-.438 0-.234 1.354-.43 3.026-.43 1.674 0 3.03.194 3.03.43z"/><g fill="#FECB37"><path d="M1036.63 113.878h-3.102V29.755c0-4.997 4.063-9.063 9.063-9.063s9.064 4.064 9.064 9.063v4.34h-3.098v-4.34c0-3.29-2.674-5.965-5.963-5.965s-5.963 2.677-5.963 5.965v84.123zM1036.607 113.878h-3.098V29.755c0-3.29-2.677-5.965-5.966-5.965s-5.96 2.677-5.96 5.965v4.34h-3.1v-4.34c0-4.997 4.062-9.063 9.062-9.063 5.002 0 9.06 4.064 9.06 9.063v84.123z"/></g><g fill="#FF6F6F"><path d="M1023.63 34.72c0 2.095-1.7 3.798-3.803 3.798-2.098 0-3.797-1.703-3.797-3.797 0-2.103 1.7-3.8 3.797-3.8 2.102 0 3.803 1.7 3.803 3.8zM1053.07 34.72c0 2.095-1.7 3.798-3.8 3.798-2.1 0-3.8-1.703-3.8-3.797 0-2.103 1.7-3.8 3.8-3.8 2.1 0 3.8 1.7 3.8 3.8z"><animate fill="remove" calcMode="linear" restart="always" additive="replace" dur="2.5s" accumulate="none" attributeName="fill" begin="1s" values="#FF6F6F;#E7ED0F;#E7ED0F;#E7ED0F;#FF6F6F;#FF6F6F;" attributeType="XML" repeatCount="indefinite"/></path></g><g fill="#191919"><path d="M683.787 80.112h274.457v.507H683.787zM682.906 96.862h274.46v.51h-274.46zM683.787 113.612h274.457v.515H683.787z"/></g><path fill="#191919" d="M665.95 16.658h252.704v.506H665.95zM665.138 33.41H919.23v.508H665.138zM705.73 50.162h212.924v.508H705.73z"/><path fill="#E5AD23" d="M881.898 146.233l-10.795-8.764 23.03-25.064 23.033 24.556-11.303 9.78"/><path fill="#D6D6D6" d="M683.414 58.883H958.23v4.473H683.414zM921.03-2.127H671.233l.508-4.472h249.29z"/><g><circle fill="#ED8164" cx="718.453" cy="-67.622" r="4.5"><animate fill="remove" calcMode="linear" restart="always" additive="replace" dur="0.9s" accumulate="none" attributeName="r" values="4.5;4.5;5.5;5.5" repeatCount="indefinite"/></circle><animateMotion fill="remove" calcMode="paced" restart="always" additive="replace" dur="0.9s" accumulate="none" values="0,25;0,-20;0,-20" repeatCount="indefinite"/><animate fill="remove" calcMode="linear" restart="always" additive="replace" dur="0.9s" accumulate="none" attributeName="opacity" values="1;1;0" repeatCount="indefinite"/></g><g><circle fill="#ED8164" cx="785.144" cy="-51.325" r="4.5"><animate fill="remove" calcMode="linear" restart="always" additive="replace" dur="1.7s" accumulate="none" attributeName="r" values="4.5;4.5;5.5;5.5" repeatCount="indefinite"/></circle><animateMotion fill="remove" calcMode="paced" restart="always" additive="replace" dur="1.7s" accumulate="none" values="0,25;0,-20;0,-20" repeatCount="indefinite"/><animate fill="remove" calcMode="linear" restart="always" additive="replace" dur="1.7s" accumulate="none" attributeName="opacity" values="1;1;0" repeatCount="indefinite"/></g><path fill="#FECB37" d="M689.798-42.08h14.592v16.42h-14.592z"/><path fill="#CE6955" d="M689.376-43.21h15.348v2.075h-15.348z"/><path fill="#D3A32A" d="M692.843-35.187h2.377v.54h-2.377z"/><path fill="#FF6F6F" d="M692.843-38.847h2.377v3.646h-2.377z"/><path fill="#D3A32A" d="M699.26-35.187h2.374v.54h-2.375z"/><path fill="#FF6F6F" d="M699.26-38.847h2.374v3.646h-2.375z"/><path fill="#D3A32A" d="M692.843-29.147h2.377v.537h-2.377z"/><path fill="#FF6F6F" d="M692.843-32.81h2.377v3.645h-2.377z"/><path fill="#D3A32A" d="M699.26-29.147h2.374v.537h-2.375z"/><path fill="#FF6F6F" d="M699.26-32.81h2.374v3.645h-2.375z"/><path fill="#5BDDB9" d="M688.142-24.938h18.12V-4.55h-18.12z"/><path fill="#CE6955" d="M687.62-26.342h19.062v2.576h-19.06z"/><path fill="#D3A32A" d="M691.925-16.38h2.95v.67h-2.95z"/><path fill="#FF6F6F" d="M691.925-20.926h2.95v4.525h-2.95z"/><path fill="#D3A32A" d="M699.892-16.38h2.95v.67h-2.95z"/><path fill="#FF6F6F" d="M699.892-20.926h2.95v4.525h-2.95z"/><path fill="#D3A32A" d="M691.925-8.88h2.95v.667h-2.95z"/><path fill="#FF6F6F" d="M691.925-13.426h2.95V-8.9h-2.95z"/><path fill="#D3A32A" d="M699.892-8.88h2.95v.667h-2.95z"/><path fill="#FF6F6F" d="M699.892-13.426h2.95V-8.9h-2.95z"/><path fill="#FECB37" d="M742.132-72.956h3.623v68.803h-3.623z"/><g><g fill="#3498DB"><path d="M743.434-92.237h1.02v39.598h-1.02zM724.145-72.946h39.598v1.018h-39.598z"/></g><g fill="#3498DB"><path d="M730.254-58.095l-.72-.718 27.988-28.003.718.72zM757.595-58.108L729.6-86.102l.718-.718 27.995 27.995z"/></g><g fill="#F8876E"><path d="M743.94-51.614c-11.48 0-20.82-9.343-20.82-20.824 0-11.484 9.34-20.826 20.82-20.826s20.827 9.342 20.827 20.826c0 11.48-9.342 20.824-20.828 20.824zm0-40.636c-10.923 0-19.814 8.887-19.814 19.813 0 10.924 8.89 19.81 19.813 19.81 10.927 0 19.812-8.886 19.812-19.81 0-10.927-8.887-19.813-19.813-19.813zM743.94-55c-9.614 0-17.44-7.823-17.44-17.44 0-9.614 7.823-17.437 17.44-17.437 9.616 0 17.437 7.822 17.437 17.438.003 9.617-7.82 17.44-17.438 17.44zm0-33.864c-9.056 0-16.425 7.367-16.425 16.423 0 9.058 7.37 16.427 16.424 16.427 9.06 0 16.427-7.37 16.427-16.428-.002-9.056-7.37-16.424-16.428-16.424z"/></g><animateTransform attributeName="transform" attributeType="XML" type="rotate" from="0 743.347 -72.961" to="360 743.347 -72.961" dur="1.5s" repeatCount="indefinite"/></g><path fill="#3498DB" d="M759.937-4.928v-15.906c0-3.215 2.605-5.818 5.82-5.818 3.215 0 5.818 2.604 5.818 5.818v15.906"/><path fill="#56B4E8" d="M602.69 41.528h5.175V91.31h-5.174zM608.04 43.348h-5.427L598.01 32.77h14.915z"/><path fill="#2BA57C" d="M598.996 103.65h14.52v15.124h-14.52z"/><ellipse fill="#40C199" cx="604.923" cy="119.924" rx="15.303" ry="2.188"/><path fill="#56B4E8" d="M620.335 119.678l-6.602-28.05h-17.488l-6.6 28.05h.13c-.083.094-.13.188-.13.28 0 1.07 5.377 1.96 12.482 2.153v-10.203h5.72v10.204c7.106-.19 12.483-1.083 12.483-2.152 0-.097-.047-.188-.13-.28h.135z"/><ellipse fill="#3498DB" cx="604.992" cy="91.682" rx="8.744" ry="1.25"/><ellipse fill="#3498DB" cx="605.458" cy="32.741" rx="7.453" ry="1.001"/><g><circle fill="#FECB37" cx="894.857" cy="-79.656" r="5"><animate fill="remove" calcMode="linear" restart="always" additive="replace" dur="1.59s" accumulate="none" attributeName="r" values="5;5;6;6" repeatCount="indefinite"/></circle><animateMotion fill="remove" calcMode="paced" restart="always" additive="replace" dur="1.59s" accumulate="none" values="0,40;0,-20;0,-20" repeatCount="indefinite"/><animate fill="remove" calcMode="linear" restart="always" additive="replace" dur="1.59s" accumulate="none" attributeName="opacity" values="1;1;0" repeatCount="indefinite"/></g><path fill="#2BA57C" d="M888.078 40.12h17.418v18.14h-17.418z"/><ellipse fill="#40C199" cx="895.189" cy="59.636" rx="18.354" ry="2.624"/><path fill="#FF6F6F" d="M913.675 59.342l-7.918-33.646h-20.98l-7.915 33.646h.152c-.1.11-.152.223-.152.338 0 1.282 6.447 2.352 14.977 2.584V50.022h6.858v12.242c8.52-.232 14.977-1.302 14.977-2.584 0-.115-.06-.228-.156-.338h.155z"/><ellipse fill="#E56161" cx="895.271" cy="25.759" rx="10.486" ry="1.499"/><path fill="#BC4835" d="M774.388 144.696l24.828-28.43 24.826 28.833z"/><path fill="#FF6F6F" d="M774.187 144.696l24.828-24.83 24.828 24.83z"/><path fill="#0C81C1" d="M802.822 149.508l24.828-28.432 24.558 28.432z"/><path fill="#3498DB" d="M802.554 149.9l24.826-24.826 24.828 24.827z"/><path fill="#FECB37" d="M881.898 148.267l-10.795-10.798 23.03-23.034 23.033 23.033-11.303 11.302"/><path fill="#2BA57C" d="M620.216 111.328h21.855v22.763h-21.854z"/><ellipse fill="#40C199" cx="629.14" cy="135.817" rx="23.031" ry="3.293"/><path fill="#5BDDB9" d="M652.335 135.446L642.4 93.233h-26.32l-9.932 42.213h.193c-.124.142-.192.277-.192.425 0 1.61 8.092 2.95 18.79 3.242v-15.358h8.604v15.358c10.695-.29 18.79-1.63 18.79-3.24 0-.147-.07-.284-.196-.426h.2z"/><ellipse fill="#40C199" cx="629.242" cy="93.311" rx="13.162" ry="1.881"/><path fill="#3498DB" d="M979.208 91.162h-90.263V43.31h80.072z"/><path fill="#2680B2" d="M908.8 57.998h52.61v2.666H908.8z"/><path fill="#66C4ED" d="M908.615 57.503h52.615v2.666h-52.615z"/><path fill="#2680B2" d="M908.8 66.294h52.61v2.666H908.8z"/><path fill="#66C4ED" d="M908.615 65.8h52.615v2.667h-52.615z"/><path fill="#2680B2" d="M908.8 75.184h52.61v2.666H908.8z"/><path fill="#66C4ED" d="M908.615 74.688h52.615v2.666h-52.615z"/><path fill="#8C8B8B" d="M888.945 41.885h79.88v3.284h-79.88z"/><path fill="#40C199" d="M584.357 126.22c0 .423-2.373.755-5.305.755s-5.31-.332-5.31-.754c0-.415 2.378-.758 5.31-.758s5.305.343 5.305.76z"/><path fill="#5BDDB9" d="M584.396 126.137l-2.287-9.728h-6.065l-2.287 9.727h.043c-.024.028-.042.06-.042.096 0 .37 1.86.68 4.328.75h1.98c2.465-.07 4.326-.38 4.326-.75 0-.035-.018-.063-.045-.096h.05z"/><path fill="#40C199" d="M582.107 116.426c0 .24-1.355.438-3.03.438-1.675 0-3.032-.193-3.032-.438 0-.232 1.357-.43 3.03-.43 1.676.002 3.032.194 3.032.43z"/><g fill="#FECB37"><path d="M580.63 116.544h-3.098V32.42c0-4.996 4.063-9.062 9.06-9.062 5 0 9.064 4.064 9.064 9.063v4.342h-3.098v-4.34c0-3.29-2.674-5.966-5.963-5.966s-5.963 2.677-5.963 5.965l-.002 84.124zM580.607 116.544h-3.096V32.42c0-3.29-2.675-5.964-5.964-5.964s-5.96 2.677-5.96 5.965v4.342h-3.1v-4.34c0-4.998 4.064-9.064 9.062-9.064s9.063 4.064 9.063 9.063l-.003 84.124z"/></g><g><path fill="#FF6F6F" d="M567.63 37.387c0 2.094-1.7 3.797-3.8 3.797-2.1 0-3.798-1.703-3.798-3.797 0-2.104 1.7-3.802 3.797-3.802 2.1.002 3.8 1.7 3.8 3.802zM597.07 37.387c0 2.094-1.7 3.797-3.8 3.797-2.1 0-3.798-1.703-3.798-3.797 0-2.104 1.7-3.802 3.8-3.802 2.1.002 3.798 1.7 3.798 3.802z"><animate fill="remove" calcMode="linear" restart="always" additive="replace" dur="2.5s" accumulate="none" attributeName="fill" values="#FF6F6F;#E7ED0F;#E7ED0F;#E7ED0F;#FF6F6F;#FF6F6F;" attributeType="XML" repeatCount="indefinite"/></path><animateColor fill="remove" calcMode="linear" restart="always" to="red" from="black" additive="replace" dur="2s" accumulate="none" attributeName="fill" attributeType="XML" repeatCount="indefinite"/></g><circle fill="#FF6F6F" cx="829.896" cy="97.635" r="23.5"/><circle fill="#E56161" cx="829.712" cy="99.717" r="15.316"/><circle fill="#FECB37" cx="829.712" cy="96.45" r="15.316"/><circle fill="#FF6F6F" cx="760.896" cy="29.635" r="17.5"/><circle fill="#E56161" cx="760.759" cy="31.185" r="11.405"/><circle fill="#CE6767" cx="760.759" cy="28.752" r="11.406"/><path opacity=".3" fill="#DBA82A" enable-background="new" d="M889.23 91.135l70 36.666V91.136z"/><path fill="#5BDDB9" d="M635.128 92.447s-1.992.854-5.98.854c-3.417 0-5.552-.853-5.552-.853V11.744s1.992-.854 5.834-.854c3.846 0 5.693.854 5.693.854l.005 80.703zM635.087 12.926h-11.12L614.543-8.74H645.1z"/><ellipse fill="#40C199" cx="629.798" cy="-8.802" rx="15.271" ry="2.052"/><path fill="#FF6F6F" d="M892.51-34.4h6.206v59.717h-6.207zM898.927-32.22h-6.51L886.9-44.905h17.89z"/><ellipse fill="#E56161" cx="895.83" cy="-44.942" rx="8.941" ry="1.2"/><path fill="#2BA57C" d="M835.882-19.324h11.857v12.352H835.88z"/><path fill="#40C199" d="M840.724-7.822c6.902 0 14.125.8 14.125 1.787 0 .986-7.224 1.787-14.126 1.787-6.9 0-14.125-.8-14.125-1.787 0-.986 7.222-1.787 14.124-1.787z"/><path fill="#5BDDB9" d="M854.937-6.236l-7.018-22.906h-14.282l-7.02 22.906h.104c-.066.074-.105.15-.105.23 0 .874 6.02 1.603 11.824 1.76v-8.336h4.673v8.334c5.807-.158 11.82-.887 11.82-1.76 0-.078-.037-.154-.104-.23l.107.002z"/><ellipse fill="#40C199" cx="840.779" cy="-29.101" rx="7.145" ry="1.021"/><circle fill="#2BA57C" cx="840.507" cy="-19.323" r="2.171"/><path fill="#2BA57C" d="M851.095-18.94c-.164.056-.338.095-.52.11-1.19.107-2.25-.77-2.355-1.967-.094-1.025.545-1.95 1.482-2.26M830.556-19.004c.166.053.342.084.52.094 1.198.068 2.228-.848 2.29-2.045.063-1.03-.61-1.932-1.563-2.207"/><path fill="#5BDDB9" d="M844.623-29.908l-3.73-7.557-3.728 7.557s.912.592 3.748.592c3.284 0 3.71-.592 3.71-.592z"/><path fill="#2BA57C" d="M879.384 127.475h22.738v23.684h-22.738z"/><path fill="#40C199" d="M888.67 149.528c13.23 0 27.08 1.535 27.08 3.43 0 1.896-13.85 3.428-27.08 3.428-13.235 0-27.085-1.532-27.085-3.428-.002-1.895 13.85-3.43 27.084-3.43z"/><path fill="#5BDDB9" d="M915.923 152.57l-13.457-43.923h-27.39L861.62 152.57h.205c-.13.145-.205.286-.205.438 0 1.678 11.54 3.07 22.674 3.37V140.4h8.957v15.98c11.13-.302 22.673-1.694 22.673-3.372 0-.152-.074-.297-.205-.44h.205z"/><ellipse fill="#40C199" cx="888.775" cy="108.73" rx="13.689" ry="1.958"/><circle fill="#2BA57C" cx="888.251" cy="127.474" r="4.161"/><path fill="#2BA57C" d="M908.556 128.208c-.313.106-.646.183-.99.214-2.29.206-4.314-1.48-4.52-3.77-.183-1.972 1.044-3.744 2.847-4.333M869.173 128.087c.316.103.65.162 1 .183 2.295.13 4.26-1.625 4.393-3.922.107-1.976-1.176-3.703-2.996-4.23"/><path fill="#5BDDB9" d="M896.148 107.176l-7.15-14.484-7.148 14.484s1.748 1.14 7.19 1.14c6.29-.003 7.108-1.14 7.108-1.14z"/><circle fill="#FF6F6F" cx="1008.564" cy="57.468" r="12.667"/><circle fill="#E56161" cx="1011.232" cy="54.134" r="3.667"/><circle fill="#FF6F6F" cx="972.564" cy="97.135" r="9"/><circle fill="#E56161" cx="974.458" cy="94.767" r="2.604"/><circle fill="#FF6F6F" cx="966.314" cy="-96.364" r="24.083"/><circle fill="#E56161" cx="966.792" cy="-95.074" r="11.625"/><circle fill="#fff" cx="966.792" cy="-98.074" r="11.625"/><circle fill="#FF6F6F" cx="967.273" cy="-98.073" r="8.792"/><path fill="#F9BF64" d="M672.595 13.15h7.01V30.74h-7.01z"/><path fill="#56B4E8" d="M672.595 8.492h7.01v17.6h-7.01z"/><path fill="#F9BF64" d="M685.757 13.15h7.012V30.74h-7.013z"/><path fill="#56B4E8" d="M685.757 8.492h7.012v17.6h-7.013z"/><path fill="#F9BF64" d="M698.925 13.15h7.01V30.74h-7.01z"/><path fill="#56B4E8" d="M698.925 8.492h7.01v17.6h-7.01z"/><path fill="#F9BF64" d="M712.09 13.15h7.01V30.74h-7.01z"/><path fill="#56B4E8" d="M712.09 8.492h7.01v17.6h-7.01z"/><path fill="#F9BF64" d="M725.255 13.15h7.01V30.74h-7.01z"/><path fill="#56B4E8" d="M725.255 8.492h7.01v17.6h-7.01z"/><path fill="#F9BF64" d="M810.595 27.15h7.01V44.74h-7.01z"/><path fill="#56B4E8" d="M810.595 22.492h7.01v17.6h-7.01z"/><path fill="#F9BF64" d="M823.76 27.15h7.01V44.74h-7.01z"/><path fill="#56B4E8" d="M823.76 22.492h7.01v17.6h-7.01z"/><path fill="#F9BF64" d="M836.925 27.15h7.01V44.74h-7.01z"/><path fill="#56B4E8" d="M836.925 22.492h7.01v17.6h-7.01z"/><path fill="#BC4835" d="M695.457 96.92h1.465v8.24h-1.465zM697.226 114.926h1.465v8.235h-1.464zM727.158 106.87h1.463v8.236h-1.462zM763.84 99.66h-1.692l-5.86-3.18 5.86-3.845h1.693z"/><g fill="#BC4835"><path d="M663.935 87.776h19.916c2.442 0 4.532.298 6.272.892 1.738.593 3.182 1.464 4.326 2.61.775.777 1.39 1.688 1.832 2.724.44 1.037.666 2.226.666 3.558v.11c0 2.26-.563 4.084-1.688 5.476-1.125 1.39-2.553 2.455-4.283 3.192 2.377.78 4.266 1.9 5.658 3.36 1.395 1.466 2.09 3.513 2.09 6.145v.11c0 3.37-1.29 6.002-3.86 7.894-2.575 1.89-6.194 2.834-10.862 2.834h-20.063l-.002-38.904zm17.28 18.434c1.67 0 2.94-.276 3.81-.834.87-.558 1.307-1.405 1.307-2.558v-3.04c0-1.072-.406-1.896-1.223-2.474-.814-.572-2.04-.86-3.67-.86h-7v9.766h6.776zm1.56 14.728c1.666 0 2.943-.307 3.834-.918.888-.61 1.333-4.42 1.333-5.567v2.817c0-1.076-.428-4.854-1.28-5.485-.853-.63-2.187-.94-4-.94h-8.228v10.1h8.338l.002-.007zM707.226 87.776h10.836v38.9h-10.836v-38.9zM748.35 127.457c-3.04 0-5.845-.49-8.42-1.474-2.573-.98-4.808-2.362-6.694-4.145-1.893-1.775-3.373-3.895-4.445-6.36-1.073-2.464-1.61-5.18-1.61-8.144v-.11c0-2.812.523-5.452 1.576-7.92 1.05-2.464 2.498-4.61 4.34-6.444 1.844-1.834 4.05-3.27 6.62-4.31 2.57-1.036 5.356-1.556 8.358-1.556 3.443 0 6.418.5 8.92 1.5 2.5 1.002 4.787 2.39 6.86 4.168l-6.335 7.613c-1.407-1.188-2.845-2.094-4.308-2.725-1.465-.632-3.16-.943-5.086-.943-1.408 0-2.713.277-3.918.834-1.203.558-2.25 1.314-3.143 2.278-.89.965-1.594 2.094-2.107 3.39-.52 1.3-.78 2.69-.78 4.17v.11c0 1.557.26 3 .782 4.334.52 1.334 1.254 2.475 2.2 3.418.946.942 2.064 1.688 3.347 2.223 1.28.54 2.705.81 4.266.81 2.527 0 4.61-.538 6.244-1.61v-4.727h-7.668v-5.693h17.895v15.31c-2.074 1.705-4.52 3.133-7.334 4.278-2.82 1.153-6.004 1.727-9.56 1.727z"/></g><g fill="#FF6F6F"><path d="M663.935 94.733h19.916c2.442 0 4.532.298 6.272.892 1.738.595 3.182 1.466 4.326 2.608.775.78 1.39 1.688 1.832 2.728.44 1.038.666 2.225.666 3.56v.11c0 2.26-.563 4.083-1.688 5.475-1.125 1.39-2.553 2.455-4.283 3.192 2.377.777 4.266 1.896 5.658 3.36 1.395 1.466 2.09 3.513 2.09 6.145v.108c0 3.37-1.29 6.004-3.86 7.894-2.575 1.893-6.194 2.836-10.862 2.836h-20.063l-.002-38.907zm17.28 15.504c1.67 0 2.94-.274 3.81-.83.87-.56 1.307-1.407 1.307-2.56v-.11c0-1.07-.406-1.895-1.223-2.473-.814-.574-2.04-.86-3.67-.86h-7v6.834h6.776zm1.56 14.73c1.666 0 2.943-.308 3.834-.918.888-.61 1.333-1.49 1.333-2.643v-.108c0-1.073-.428-1.928-1.28-2.56-.853-.63-2.187-.943-4-.943h-8.228v7.17h8.34zM707.226 94.733h10.836v38.9h-10.836v-38.9zM748.35 134.412c-3.04 0-5.845-.49-8.42-1.472-2.573-.98-4.808-2.362-6.694-4.145-1.893-1.777-3.373-3.896-4.445-6.36-1.073-2.466-1.61-5.18-1.61-8.144v-.108c0-2.813.523-5.457 1.576-7.92 1.05-2.465 2.498-4.61 4.34-6.445 1.844-1.834 4.05-3.27 6.62-4.31 2.57-1.034 5.356-1.556 8.358-1.556 3.443 0 6.418.503 8.92 1.5 2.5 1 4.787 2.392 6.86 4.17l-6.335 7.612c-1.407-1.188-2.845-2.094-4.308-2.725-1.465-.63-3.16-.943-5.086-.943-1.408 0-2.713.277-3.918.834-1.203.557-2.25 1.313-3.143 2.277-.89.963-1.594 2.094-2.107 3.39-.52 1.3-.78 2.69-.78 4.17v.11c0 1.557.26 3 .782 4.334.52 1.333 1.254 2.474 2.2 3.417.946.942 2.064 1.686 3.347 2.223 1.28.54 2.705.81 4.266.81 2.527 0 4.61-.538 6.244-1.612v-4.725h-7.668V110.9h17.895v17.506c-2.074 1.703-4.52 3.133-7.334 4.28-2.82 1.154-6.004 1.726-9.56 1.726z"/></g><path fill="#8C8B8B" d="M953.775 115.17c-1.068 0-2.1.188-3.06.51-.747-1.66-1.616-3.584-2.64-5.86l.648-1.786 2.234-.045v-1.872h-8.416c-.737 1.016.298 1.01 4.022 1.838l-.648 1.826h-16.637c1.12-3.912.486-3.623 5.535-3.613v-1.923c-6.94.074-5.742-.71-9.457 11.25-.568-.104-1.152-.16-1.756-.16-5.272 0-9.564 4.285-9.564 9.563 0 5.275 4.29 9.563 9.563 9.563s9.562-4.293 9.562-9.563c0-3.948-2.404-7.35-5.822-8.8.205-.663.434-1.355.67-2.105 13.994 14.77 8.742 12.366 16.273 12.66h.104c.896 4.362 4.756 7.65 9.375 7.65 5.277 0 9.566-4.292 9.566-9.562.01-5.28-4.278-9.572-9.553-9.572zm-22.838 9.725c0 4.035-3.287 7.324-7.328 7.324s-7.33-3.29-7.33-7.325 3.288-7.33 7.33-7.33c.36 0 .72.033 1.07.084-2.337 7.356-2.056 6.526-2.067 7.143-.01.52.41.937.94.978.952-.097.733.064 3.12-7.52 2.508 1.158 4.264 3.696 4.264 6.645zm9.44-.457l-11.57-12.604 16.278-.03-4.707 12.634zm3.83.27l-1.778-.008 4.618-12.125 1.79 3.972c-2.766 1.672-4.616 4.697-4.63 8.16zm5.562-6.098l2.765 6.12-6.086-.02c.008-2.552 1.33-4.802 3.32-6.1zm4.005 13.455c-3.38 0-6.23-2.307-7.072-5.414 7.627.008 8.31.403 8.412-.923-.01-.385-.148-.65-3.475-8.002.676-.197 1.395-.313 2.135-.313 4.04 0 7.326 3.287 7.326 7.328.003 4.034-3.284 7.325-7.325 7.325z"/><path fill="#FECB37" d="M715.068-37.127h6.803v32.975h-6.802zM715.154-37.447c0-1.805 1.482-3.268 3.314-3.268 1.83 0 3.313 1.463 3.313 3.268"/><path fill="#FECB37" d="M721.775-34.47h-6.98l-5.915-13.596h19.178z"/><ellipse fill="#E5AD23" cx="717.914" cy="-48.14" rx="9.445" ry="1.269"/><path fill="#FECB37" d="M781.757-20.83h6.807v15.9h-6.807zM781.84-21.15c0-1.805 1.487-3.266 3.317-3.266 1.832 0 3.314 1.46 3.314 3.266"/><path fill="#FECB37" d="M788.466-18.172h-6.98l-5.914-13.6h19.18z"/><ellipse fill="#E5AD23" cx="784.542" cy="-31.825" rx="9.441" ry="1.269"/></svg>